<svg width="22" height="22" viewBox="0 0 22 22" fill="none" xmlns="http://www.w3.org/2000/svg">
<g clip-path="url(#clip0_1284_66)">
<path d="M11.0004 6.53674C10.4142 6.53674 9.83385 6.65219 9.29235 6.87649C8.75084 7.10079 8.25882 7.42955 7.84437 7.844C7.42991 8.25845 7.10115 8.75047 6.87685 9.29198C6.65256 9.83349 6.53711 10.4139 6.53711 11C6.53711 11.5861 6.65256 12.1665 6.87685 12.708C7.10115 13.2495 7.42991 13.7415 7.84437 14.156C8.25882 14.5704 8.75084 14.8992 9.29235 15.1235C9.83385 15.3478 10.4142 15.4632 11.0004 15.4632C12.1841 15.4632 13.3193 14.993 14.1564 14.156C14.9934 13.319 15.4636 12.1837 15.4636 11C15.4636 9.81627 14.9934 8.68102 14.1564 7.844C13.3193 7.00698 12.1841 6.53674 11.0004 6.53674ZM7.91211 11C7.91211 10.1809 8.23748 9.39543 8.81664 8.81627C9.3958 8.23711 10.1813 7.91174 11.0004 7.91174C11.8194 7.91174 12.6049 8.23711 13.1841 8.81627C13.7632 9.39543 14.0886 10.1809 14.0886 11C14.0886 11.819 13.7632 12.6046 13.1841 13.1837C12.6049 13.7629 11.8194 14.0882 11.0004 14.0882C10.1813 14.0882 9.3958 13.7629 8.81664 13.1837C8.23748 12.6046 7.91211 11.819 7.91211 11Z" fill="white"/>
<path d="M13.4698 1.84691C12.7452 -0.614336 9.25541 -0.614336 8.53079 1.84691L8.40154 2.28554C8.35093 2.45735 8.26252 2.61566 8.14279 2.74886C8.02305 2.88206 7.87502 2.98678 7.70956 3.05534C7.54409 3.12389 7.36538 3.15456 7.18653 3.14508C7.00767 3.13559 6.8332 3.08621 6.67591 3.00054L6.27441 2.78054C4.01941 1.55404 1.55404 4.02079 2.78191 6.27441L3.00054 6.67591C3.08621 6.8332 3.13559 7.00767 3.14508 7.18653C3.15456 7.36538 3.12389 7.54409 3.05534 7.70956C2.98678 7.87502 2.88206 8.02305 2.74886 8.14279C2.61566 8.26252 2.45735 8.35093 2.28554 8.40154L1.84691 8.53079C-0.614336 9.25541 -0.614336 12.7452 1.84691 13.4698L2.28554 13.599C2.45735 13.6496 2.61566 13.7381 2.74886 13.8578C2.88206 13.9775 2.98678 14.1256 3.05534 14.291C3.12389 14.4565 3.15456 14.6352 3.14508 14.8141C3.13559 14.9929 3.08621 15.1674 3.00054 15.3247L2.78054 15.7262C1.55404 17.9812 4.01941 20.4479 6.27441 19.2187L6.67591 19C6.8332 18.9144 7.00767 18.865 7.18653 18.8555C7.36538 18.846 7.54409 18.8767 7.70956 18.9452C7.87502 19.0138 8.02305 19.1185 8.14279 19.2517C8.26252 19.3849 8.35093 19.5432 8.40154 19.715L8.53079 20.1537C9.25541 22.6149 12.7452 22.6149 13.4698 20.1537L13.599 19.715C13.6496 19.5432 13.7381 19.3849 13.8578 19.2517C13.9775 19.1185 14.1256 19.0138 14.291 18.9452C14.4565 18.8767 14.6352 18.846 14.8141 18.8555C14.9929 18.865 15.1674 18.9144 15.3247 19L15.7262 19.22C17.9812 20.4479 20.4479 17.9798 19.2187 15.7262L19 15.3247C18.9144 15.1674 18.865 14.9929 18.8555 14.8141C18.846 14.6352 18.8767 14.4565 18.9452 14.291C19.0138 14.1256 19.1185 13.9775 19.2517 13.8578C19.3849 13.7381 19.5432 13.6496 19.715 13.599L20.1537 13.4698C22.6149 12.7452 22.6149 9.25541 20.1537 8.53079L19.715 8.40154C19.5432 8.35093 19.3849 8.26252 19.2517 8.14279C19.1185 8.02305 19.0138 7.87502 18.9452 7.70956C18.8767 7.54409 18.846 7.36538 18.8555 7.18653C18.865 7.00767 18.9144 6.8332 19 6.67591L19.22 6.27441C20.4479 4.01941 17.9798 1.55404 15.7262 2.78191L15.3247 3.00054C15.1674 3.08621 14.9929 3.13559 14.8141 3.14508C14.6352 3.15456 14.4565 3.12389 14.291 3.05534C14.1256 2.98678 13.9775 2.88206 13.8578 2.74886C13.7381 2.61566 13.6496 2.45735 13.599 2.28554L13.4698 1.84691ZM9.84941 2.23604C10.1877 1.08791 11.8129 1.08791 12.1512 2.23604L12.2804 2.67466C12.3891 3.04328 12.5788 3.38291 12.8358 3.66865C13.0928 3.95439 13.4105 4.179 13.7655 4.32601C14.1206 4.47302 14.504 4.53871 14.8878 4.51825C15.2716 4.49779 15.6459 4.39171 15.9833 4.20779L16.3834 3.98779C17.4339 3.41716 18.5834 4.56529 18.0114 5.61716L17.7928 6.01866C17.6091 6.35612 17.5033 6.7304 17.4831 7.11406C17.4629 7.49773 17.5287 7.88106 17.6758 8.23597C17.823 8.59087 18.0476 8.90837 18.3334 9.16518C18.6192 9.42199 18.9587 9.61162 19.3273 9.72016L19.7645 9.84941C20.9127 10.1877 20.9127 11.8129 19.7645 12.1512L19.3259 12.2804C18.9573 12.3891 18.6177 12.5788 18.3319 12.8358C18.0462 13.0928 17.8216 13.4105 17.6746 13.7655C17.5276 14.1206 17.4619 14.504 17.4823 14.8878C17.5028 15.2716 17.6089 15.6459 17.7928 15.9833L18.0128 16.3834C18.5834 17.4339 17.4353 18.5834 16.3834 18.0114L15.9833 17.7928C15.6458 17.6089 15.2714 17.5029 14.8875 17.4825C14.5037 17.4621 14.1202 17.5279 13.7651 17.6751C13.41 17.8222 13.0924 18.047 12.8355 18.3329C12.5786 18.6188 12.3889 18.9585 12.2804 19.3273L12.1512 19.7645C11.8129 20.9127 10.1877 20.9127 9.84941 19.7645L9.72016 19.3259C9.61146 18.9575 9.42172 18.618 9.16484 18.3324C8.90796 18.0469 8.59045 17.8223 8.23556 17.6753C7.88067 17.5283 7.4974 17.4626 7.11381 17.4829C6.73022 17.5033 6.35603 17.6091 6.01866 17.7928L5.61716 18.0128C4.56666 18.5834 3.41716 17.4353 3.98916 16.3834L4.20779 15.9833C4.39197 15.6458 4.49826 15.2714 4.51885 14.8875C4.53944 14.5035 4.47382 14.1199 4.32679 13.7646C4.17976 13.4094 3.95506 13.0916 3.66917 12.8345C3.38329 12.5774 3.04347 12.3876 2.67466 12.279L2.23604 12.1498C1.08791 11.8115 1.08791 10.1863 2.23604 9.84804L2.67466 9.71879C3.0429 9.61004 3.38216 9.42033 3.66761 9.16355C3.95306 8.90676 4.17749 8.5894 4.32446 8.23469C4.47144 7.87998 4.53724 7.49689 4.51705 7.11347C4.49686 6.73004 4.3912 6.35598 4.20779 6.01866L3.98779 5.61716C3.41716 4.56666 4.56529 3.41716 5.61716 3.98916L6.01866 4.20779C6.35603 4.39145 6.73022 4.49733 7.11381 4.51765C7.4974 4.53797 7.88067 4.47223 8.23556 4.32524C8.59045 4.17824 8.90796 3.95373 9.16484 3.66813C9.42172 3.38253 9.61146 3.04309 9.72016 2.67466L9.84941 2.23604Z" fill="white"/>
</g>
<defs>
<clipPath id="clip0_1284_66">
<rect width="22" height="22" fill="white"/>
</clipPath>
</defs>
</svg>
