<svg width="100" height="100" viewBox="0 0 100 100" fill="none" xmlns="http://www.w3.org/2000/svg">
<path d="M40.6244 16.2979C40.6244 10.1646 44.3056 6.25 49.7056 6.25H52.3764C57.7764 6.25 61.4577 10.1646 61.4577 16.2979V22.9167H67.7077V16.2979C67.7924 12.1157 66.2345 8.06677 63.3684 5.01989C60.5022 1.973 56.5561 0.170849 52.3764 0H49.7056C45.526 0.170849 41.5799 1.973 38.7137 5.01989C35.8476 8.06677 34.2897 12.1157 34.3744 16.2979V22.9167H40.6244V16.2979Z" fill="#52B788"/>
<path d="M67.708 22.9166V31.25H61.458V22.9166H40.6247V31.25H34.3747V22.9166H11.458V100H88.5413V22.9166H67.708Z" fill="#52B788"/>
<line x1="51.3574" y1="47.5" x2="51.3574" y2="74.5" stroke="white" stroke-width="3" stroke-linecap="round"/>
<line x1="64.5" y1="60.5" x2="37.5" y2="60.5" stroke="white" stroke-width="3" stroke-linecap="round"/>
</svg>
